<?xml version="1.0" encoding="UTF-8"?>
<!DOCTYPE svg PUBLIC "-//W3C//DTD SVG 1.1//EN" "http://www.w3.org/Graphics/SVG/1.1/DTD/svg11.dtd">
<svg xmlns="http://www.w3.org/2000/svg" version="1.1" width="2000px" height="1247px" style="shape-rendering:geometricPrecision; text-rendering:geometricPrecision; image-rendering:optimizeQuality; fill-rule:evenodd; clip-rule:evenodd" xmlns:xlink="http://www.w3.org/1999/xlink">
<g><path style="opacity:0.944" fill="#000000" d="M 582.5,-0.5 C 611.167,-0.5 639.833,-0.5 668.5,-0.5C 825.506,12.5172 959.506,74.3505 1070.5,185C 1059.73,185.952 1049.07,185.619 1038.5,184C 940.569,92.5203 824.569,38.8537 690.5,23C 503.028,6.48478 341.028,62.1514 204.5,190C 85.4466,309.181 24.4466,453.515 21.5,623C 24.3581,791.973 85.0247,935.973 203.5,1055C 339.831,1183.34 501.831,1239.34 689.5,1223C 823.945,1207.35 940.278,1153.69 1038.5,1062C 1043.89,1060.88 1049.39,1060.38 1055,1060.5C 1059.83,1060.83 1064.67,1061.17 1069.5,1061.5C 958.615,1172.26 824.615,1233.93 667.5,1246.5C 639.167,1246.5 610.833,1246.5 582.5,1246.5C 399.104,1230.4 249.604,1151.4 134,1009.5C 21.0432,860.665 -19.9568,693.665 11,508.5C 39.0647,365.81 107.231,246.644 215.5,151C 321.153,61.035 443.486,10.535 582.5,-0.5 Z"/></g>
<g><path style="opacity:0.991" fill="#000000" d="M 762.5,236.5 C 817.569,234.764 868.236,248.598 914.5,278C 964.802,314.429 990.468,363.929 991.5,426.5C 988.85,497.993 956.85,551.826 895.5,588C 832.765,621.574 767.098,628.574 698.5,609C 681.168,603.998 664.835,596.831 649.5,587.5C 648.5,618.826 648.167,650.16 648.5,681.5C 580.167,681.5 511.833,681.5 443.5,681.5C 443.5,536.167 443.5,390.833 443.5,245.5C 511.833,245.5 580.167,245.5 648.5,245.5C 648.333,302.501 648.5,359.501 649,416.5C 664.327,359.524 679.494,302.524 694.5,245.5C 717.046,240.516 739.712,237.516 762.5,236.5 Z M 709.5,384.5 C 730.619,383.015 750.285,387.515 768.5,398C 789.719,418.043 789.719,438.043 768.5,458C 748.528,470.166 726.862,474.499 703.5,471C 684.527,469.925 668.36,462.759 655,449.5C 643.777,430.089 646.943,413.256 664.5,399C 678.468,390.621 693.468,385.787 709.5,384.5 Z"/></g>
<g><path style="opacity:0.991" fill="#000000" d="M 1326.5,236.5 C 1382.93,234.685 1434.59,249.185 1481.5,280C 1537.53,322.935 1561.7,379.769 1554,450.5C 1546.11,503.812 1520.27,545.979 1476.5,577C 1425.32,611.21 1368.99,624.877 1307.5,618C 1273.91,614.525 1242.58,604.359 1213.5,587.5C 1212.5,618.826 1212.17,650.16 1212.5,681.5C 1144.17,681.5 1075.83,681.5 1007.5,681.5C 1007.5,536.167 1007.5,390.833 1007.5,245.5C 1075.83,245.5 1144.17,245.5 1212.5,245.5C 1212.33,302.501 1212.5,359.501 1213,416.5C 1228.33,359.524 1243.49,302.524 1258.5,245.5C 1281.05,240.516 1303.71,237.516 1326.5,236.5 Z M 1273.5,384.5 C 1294.62,383.015 1314.29,387.515 1332.5,398C 1353.78,418.031 1353.78,438.031 1332.5,458C 1312.53,470.166 1290.86,474.499 1267.5,471C 1248.53,469.925 1232.36,462.759 1219,449.5C 1209.79,434.709 1210.45,420.376 1221,406.5C 1226.72,400.112 1233.56,395.279 1241.5,392C 1252.01,388.204 1262.67,385.704 1273.5,384.5 Z"/></g>
<g><path style="opacity:0.977" fill="#000000" d="M 547.5,785.5 C 562.755,785.299 577.755,787.132 592.5,791C 610.342,796.315 622.842,807.482 630,824.5C 635.048,839.973 632.048,853.639 621,865.5C 615.791,870.378 610.291,874.878 604.5,879C 610.833,884 617.167,889 623.5,894C 632.512,904.545 635.679,916.712 633,930.5C 626.938,956.895 612.104,976.729 588.5,990C 565.788,1002.76 541.454,1008.09 515.5,1006C 497.349,1003.9 479.349,1000.9 461.5,997C 458.008,995.123 456.674,992.123 457.5,988C 460.784,943.215 464.784,898.548 469.5,854C 464.541,855.091 459.541,856.424 454.5,858C 451.118,858.824 447.784,858.657 444.5,857.5C 443.48,855.568 443.313,853.568 444,851.5C 449.152,837.033 454.985,822.866 461.5,809C 488.752,795.52 517.418,787.687 547.5,785.5 Z M 547.5,833.5 C 566.897,832.064 575.731,841.064 574,860.5C 572.591,863.582 570.758,866.415 568.5,869C 561.902,873.267 555.069,877.1 548,880.5C 542.513,888.642 537.68,897.142 533.5,906C 533.903,907.473 534.57,908.806 535.5,910C 548.317,911.201 560.317,914.868 571.5,921C 576.259,925.491 577.759,930.991 576,937.5C 572.192,946.641 565.692,953.141 556.5,957C 543.99,962.002 530.99,964.502 517.5,964.5C 519.929,923.181 523.929,882.014 529.5,841C 529.755,839.674 530.422,838.674 531.5,838C 536.956,836.473 542.289,834.973 547.5,833.5 Z"/></g>
<g><path style="opacity:0.978" fill="#000000" d="M 958.5,785.5 C 961.247,785.187 963.914,785.52 966.5,786.5C 967.087,788.273 967.42,790.106 967.5,792C 965.587,820.292 962.587,848.459 958.5,876.5C 975.511,876.581 992.511,876.247 1009.5,875.5C 1012.07,850.137 1014.57,824.803 1017,799.5C 1035.58,793.981 1054.41,789.314 1073.5,785.5C 1077.66,785.622 1079.32,787.789 1078.5,792C 1071.01,858.087 1064.17,924.254 1058,990.5C 1041.08,998.306 1023.58,1004.64 1005.5,1009.5C 1003.94,1008.93 1002.44,1008.26 1001,1007.5C 1000.33,998.167 1000.33,988.833 1001,979.5C 1003.12,961.211 1004.62,942.878 1005.5,924.5C 988.487,924.167 971.487,924.501 954.5,925.5C 952.185,946.46 950.018,967.46 948,988.5C 947.751,989.624 947.251,990.624 946.5,991.5C 929.495,998.002 912.328,1004 895,1009.5C 893.018,1009.01 891.351,1008.01 890,1006.5C 890.328,979.072 892.161,951.739 895.5,924.5C 889.491,924.666 883.491,924.499 877.5,924C 873.705,922.936 872.539,920.436 874,916.5C 882.726,904.104 891.06,891.437 899,878.5C 901.612,852.148 904.279,825.815 907,799.5C 924.14,794.425 941.306,789.758 958.5,785.5 Z"/></g>
<g><path style="opacity:0.975" fill="#000000" d="M 1452.5,833.5 C 1471.73,833.404 1490.4,836.57 1508.5,843C 1540.1,856.677 1555.77,880.844 1555.5,915.5C 1555.08,955.553 1536.74,983.719 1500.5,1000C 1475.81,1008.64 1451.14,1008.64 1426.5,1000C 1396.13,985.124 1380.46,960.624 1379.5,926.5C 1382.41,880.27 1406.41,852.27 1451.5,842.5C 1451.28,840.658 1450.94,838.825 1450.5,837C 1450.86,835.566 1451.53,834.399 1452.5,833.5 Z M 1460.5,877.5 C 1482.12,876.283 1495.29,886.283 1500,907.5C 1501.86,923.645 1499.2,938.979 1492,953.5C 1480.18,969.122 1466.01,971.622 1449.5,961C 1439.22,948.73 1435.05,934.563 1437,918.5C 1438,905.824 1442.33,894.49 1450,884.5C 1453.15,881.488 1456.65,879.155 1460.5,877.5 Z"/></g>
<g><path style="opacity:0.972" fill="#000000" d="M 1377.5,835.5 C 1379.5,835.5 1381.5,835.5 1383.5,835.5C 1380.96,850.854 1378.3,866.187 1375.5,881.5C 1365.14,880.038 1354.81,880.205 1344.5,882C 1329.85,885.975 1321.69,895.475 1320,910.5C 1318.05,936.558 1315.55,962.558 1312.5,988.5C 1296.54,994.432 1280.54,1000.27 1264.5,1006C 1261.44,1006.74 1258.44,1006.57 1255.5,1005.5C 1254.64,1004.26 1253.98,1002.93 1253.5,1001.5C 1258,951.133 1262.84,900.799 1268,850.5C 1287.81,845.903 1307.64,841.237 1327.5,836.5C 1326.76,843.919 1325.93,851.253 1325,858.5C 1340.9,847.038 1358.4,839.372 1377.5,835.5 Z"/></g>
<g><path style="opacity:0.974" fill="#000000" d="M 729.5,836.5 C 762.293,835.302 784.46,849.968 796,880.5C 799.581,893.509 797.581,905.509 790,916.5C 776.78,931.999 759.947,941.166 739.5,944C 728.283,946.082 717.116,945.915 706,943.5C 705.5,943.833 705,944.167 704.5,944.5C 707.262,954.43 713.596,960.93 723.5,964C 735.559,967.145 747.559,966.811 759.5,963C 769.291,959.459 778.958,955.626 788.5,951.5C 789.167,951.833 789.833,952.167 790.5,952.5C 789.187,963.814 789.187,975.148 790.5,986.5C 790.124,988.383 789.124,989.883 787.5,991C 763.546,1003.39 738.213,1008.06 711.5,1005C 665.07,992.661 643.904,962.494 648,914.5C 653.249,878.157 673.082,853.657 707.5,841C 714.882,839.024 722.216,837.524 729.5,836.5 Z M 729.5,876.5 C 738.941,875.478 746.775,878.478 753,885.5C 753.76,890.482 751.927,894.315 747.5,897C 733.564,904.312 718.897,908.479 703.5,909.5C 706.74,893.926 715.406,882.926 729.5,876.5 Z"/></g>
<g><path style="opacity:0.973" fill="#000000" d="M 1169.5,836.5 C 1200.16,835.068 1222,848.068 1235,875.5C 1240.98,890.5 1239.31,904.5 1230,917.5C 1211.79,936.358 1189.45,945.692 1163,945.5C 1157.44,945.128 1151.94,944.461 1146.5,943.5C 1146.34,949.032 1148.34,953.866 1152.5,958C 1160.35,963.675 1169.18,966.509 1179,966.5C 1187.35,966.018 1195.52,964.518 1203.5,962C 1212.31,957.926 1221.31,954.426 1230.5,951.5C 1230.67,964.171 1230.5,976.838 1230,989.5C 1207.75,1001.69 1183.92,1007.19 1158.5,1006C 1114.22,998.718 1090.55,972.718 1087.5,928C 1088.91,883.953 1110.25,854.619 1151.5,840C 1157.58,838.503 1163.58,837.336 1169.5,836.5 Z M 1169.5,876.5 C 1176.72,875.594 1183.39,877.094 1189.5,881C 1194.35,884.513 1195.18,888.68 1192,893.5C 1184.23,899.765 1175.4,903.932 1165.5,906C 1158.56,907.822 1151.56,909.322 1144.5,910.5C 1147.05,894.655 1155.39,883.322 1169.5,876.5 Z"/></g>
</svg>
